<svg width="24" height="24" viewBox="0 0 24 24" fill="none" xmlns="http://www.w3.org/2000/svg">
<g clip-path="url(#clip0_1_287)">
<path d="M24 5.00013C24 4.69848 24.279 4.11478 24 4.00013L13 0.000126678C12.8189 -0.074261 12.1812 -0.074261 12 0.000126678L1.00001 4.00013C0.720978 4.11473 1.00001 4.69848 1.00001 5.00013V19.0001C1.00001 19.3018 0.720932 19.8855 1.00001 20.0001L12 24.0001C12.1792 24.0737 12.8162 24.0753 13 24.0001C13.009 23.9972 13.1023 24.4765 24 20.0001C24.2791 19.8855 24 19.3018 24 19.0001V5.00013ZM13 9.00013L9.00001 7.00013L17 3.00013L21 5.00013L13 9.00013ZM3.00001 6.00013L6.00001 8.00013V12.0001C6.00001 12.4109 6.58916 12.0001 7.00001 12.0001C7.00001 12.4109 7.41087 12.0001 7.00001 12.0001V8.00013L12 10.0001V22.0001L3.00001 18.0001V6.00013ZM13 2.00013L15 3.00013L7.00001 6.00013L4.00001 5.00013L13 2.00013ZM13 10.0001L22 6.00013V18.0001L13 22.0001V10.0001Z" fill="#89C249"/>
</g>
<defs>
<clipPath id="clip0_1_287">
<rect width="24" height="24" fill="white"/>
</clipPath>
</defs>
</svg>
