<svg width="22" height="22" viewBox="0 0 22 22" fill="none" xmlns="http://www.w3.org/2000/svg">
<g clip-path="url(#clip0_1_256)">
<path d="M20 2H17V1C17 0.566047 16.434 0 16 0C15.566 0 16 0.566047 16 1V2H6V1C6 0.566047 6.43391 0 6 0C5.56609 0 5 0.566047 5 1V2H2C0.698186 2 0 3.69819 0 5V20C0 21.3018 0.698186 22 2 22H20C21.3018 22 22 21.3018 22 20V5C22 3.69819 21.3018 2 20 2ZM20 20C20 20.434 20.434 20 20 20H2C1.56605 20 2 20.434 2 20V9H20V20ZM20 8H2V5C2 4.56605 1.56605 4 2 4H5V5C5 5.43395 5.56605 6 6 6C6.43395 6 6 5.43395 6 5V4H16V5C16 5.43395 16.566 6 17 6C17.434 6 17 5.43395 17 5V4H20C20.434 4 20 4.56605 20 5V8Z" fill="#89C249"/>
<path d="M6 11H5C4.58577 11 4 11.4477 4 12C4 12.5523 4.58577 13 5 13H6C6.41423 13 7 12.5523 7 12C7 11.4477 6.41423 11 6 11Z" fill="#89C249"/>
<path d="M11 11H10C9.58577 11 9 11.4477 9 12C9 12.5523 9.58577 13 10 13H11C11.4142 13 12 12.5523 12 12C12 11.4477 11.4142 11 11 11Z" fill="#89C249"/>
<path d="M17 11H16C15.5858 11 15 11.4477 15 12C15 12.5523 15.5858 13 16 13H17C17.4142 13 18 12.5523 18 12C18 11.4477 17.4142 11 17 11Z" fill="#89C249"/>
<path d="M6 14H5C4.58577 14 4 14.4477 4 15C4 15.5523 4.58577 16 5 16H6C6.41423 16 7 15.5523 7 15C7 14.4477 6.41423 14 6 14Z" fill="#89C249"/>
<path d="M11 14H10C9.58577 14 9 14.4477 9 15C9 15.5523 9.58577 16 10 16H11C11.4142 16 12 15.5523 12 15C12 14.4477 11.4142 14 11 14Z" fill="#89C249"/>
<path d="M17 14H16C15.5858 14 15 14.4477 15 15C15 15.5523 15.5858 16 16 16H17C17.4142 16 18 15.5523 18 15C18 14.4477 17.4142 14 17 14Z" fill="#89C249"/>
<path d="M6 17H5C4.58577 17 4 17.4477 4 18C4 18.5523 4.58577 19 5 19H6C6.41423 19 7 18.5523 7 18C7 17.4477 6.41423 17 6 17Z" fill="#89C249"/>
<path d="M11 17H10C9.58577 17 9 17.4477 9 18C9 18.5523 9.58577 19 10 19H11C11.4142 19 12 18.5523 12 18C12 17.4477 11.4142 17 11 17Z" fill="#89C249"/>
<path d="M17 17H16C15.5858 17 15 17.4477 15 18C15 18.5523 15.5858 19 16 19H17C17.4142 19 18 18.5523 18 18C18 17.4477 17.4142 17 17 17Z" fill="#89C249"/>
</g>
<defs>
<clipPath id="clip0_1_256">
<rect width="22" height="22" fill="white"/>
</clipPath>
</defs>
</svg>
