<svg width="50" height="50" viewBox="0 0 50 50" fill="none" xmlns="http://www.w3.org/2000/svg">
<g clip-path="url(#clip0_1_319)">
<path d="M13.0001 38.0001L24.0001 46.0001C24.2862 46.1982 24.7143 46.1982 25.0001 46.0001L36.0001 38.0001C38.9333 35.9574 41.0001 31.6226 41.0001 28.0001V13.0001C40.9976 12.6727 41.2883 12.1435 41.0001 12.0001L25.0001 4.00008C24.7667 3.88344 24.2334 3.88344 24.0001 4.00008L8.00007 12.0001C7.71064 12.1431 8.00294 12.6719 8.00007 13.0001V28.0001C8.00007 31.6226 10.0672 35.9578 13.0001 38.0001ZM10.0001 13.0001L24.0001 6.00008L39.0001 13.0001V28.0001C39.0001 31.0177 37.4441 35.2986 35.0001 37.0001L25.0001 44.0001L14.0001 37.0001C11.5564 35.2986 10.0001 31.0177 10.0001 28.0001V13.0001Z" fill="white"/>
<path d="M12.0004 41L25.0004 50C24.7129 50.1979 25.288 50.1979 25.0004 50L38.0004 41C41.8341 38.3456 45.0004 32.7096 45.0004 28V10C44.9947 9.67213 45.2913 10.1421 45.0004 10L25.0004 2.24188e-05C24.7658 -0.116218 25.2351 -0.116218 25.0004 2.24188e-05L5.00044 10C4.70835 10.1413 5.007 9.67172 5.00044 10V28C5.00044 32.7096 8.16724 38.3461 12.0004 41ZM7.00044 11L25.0004 2.00002L43.0004 11V28C43.0004 32.2039 40.423 37.6302 37.0004 40L25.0004 48L13.0004 40C9.5787 37.631 7.00044 32.2039 7.00044 28V11Z" fill="white"/>
<path d="M22.0004 33C21.7788 33.0024 22.1575 33.1513 22.0004 33C22.2208 33.0028 22.8429 33.1493 23.0004 33L35.0004 21C35.1575 20.8487 35.0004 20.2145 35.0004 20C35.0004 19.7855 35.1575 20.1513 35.0004 20L32.0004 17C31.6739 16.6839 31.3269 16.6839 31.0004 17L22.0004 26L18.0004 22C17.6755 21.6823 17.3286 21.6855 17.0004 22L14.0004 24C13.8429 24.1513 14.0016 24.7855 14.0004 25C13.8445 24.8487 13.9996 25.2134 14.0004 25L22.0004 33ZM17.0004 24L22.0004 28C21.7768 27.9957 22.1555 28.1561 22.0004 28C22.2237 27.996 22.8449 28.1549 23.0004 28L32.0004 19L33.0004 20L22.0004 31L16.0004 25L17.0004 24Z" fill="white"/>
</g>
<defs>
<clipPath id="clip0_1_319">
<rect width="50" height="50" fill="white"/>
</clipPath>
</defs>
</svg>
