<svg width="50" height="50" viewBox="0 0 50 50" fill="none" xmlns="http://www.w3.org/2000/svg">
<g clip-path="url(#clip0_1_371)">
<path d="M49 9C48.3524 8.22742 47.9993 8.08423 47 8L11 5C10.0006 4.91577 9.7656 5.34653 9 6C8.23752 6.65091 7.0861 6.99639 7 8V15H4C1.93015 15 0 16.911 0 19V41C0 43.089 1.93015 45 4 45H39C41.0699 45 43 43.089 43 41V38H44C43.8957 38 44.1057 38.0089 44 38C45.9297 38 47.8366 35.9751 48 34L50 12C50.0834 10.9915 49.6476 9.77268 49 9ZM4 17H39C39.9933 17 41 17.9975 41 19V21H2V19C2 17.9975 3.00666 17 4 17ZM2 23H41V27H2V23ZM39 43H4C3.00666 43 2 42.0025 2 41V29H41V41C41 42.0025 39.9933 43 39 43ZM48 12L46 34C45.9173 34.9991 44.9897 36.0837 44 36H43V19C43 16.911 41.0699 15 39 15H9V9C8.99941 9.00759 9.00078 8.99251 9 9C9.08268 8.00093 10.0098 6.91626 11 7L46 10C46.4796 10.0404 47.6893 10.6292 48 11C48.3107 11.3708 48.04 11.516 48 12Z" fill="white"/>
<path d="M36 32H27C26.4774 32 26 32.4663 26 33V39C26 39.5337 26.4774 40 27 40H36C36.5226 40 37 39.5337 37 39V33C37 32.4663 36.5226 32 36 32ZM35 38H28V34H35V38Z" fill="white"/>
</g>
<defs>
<clipPath id="clip0_1_371">
<rect width="50" height="50" fill="white"/>
</clipPath>
</defs>
</svg>
