<svg width="63" height="63" viewBox="0 0 63 63" fill="none" xmlns="http://www.w3.org/2000/svg">
<g clip-path="url(#clip0_1_334)">
<path d="M55.0001 49C53.9579 49.0008 51.867 48.5785 51.0001 48C50.1332 47.4216 49.3994 46.9627 49.0001 46C48.6008 45.0374 48.7973 43.0223 49.0001 42C49.203 40.9778 50.2634 40.7372 51.0001 40C51.7368 39.2628 51.978 38.2036 53.0001 38C54.0222 37.7964 56.0372 37.6014 57.0001 38C57.963 38.3987 58.421 39.1336 59.0001 40C59.5792 40.8665 60.0001 41.9579 60.0001 43C59.9994 44.3965 58.9872 46.0123 58.0001 47C57.0131 47.9878 56.3965 48.9983 55.0001 49ZM55.0001 40C54.338 39.9993 53.551 40.6328 53.0001 41C52.4493 41.3673 51.254 41.3886 51.0001 42C50.7462 42.6115 50.8714 43.3506 51.0001 44C51.1288 44.6495 51.5322 45.5316 52.0001 46C52.468 46.4685 53.3508 46.8706 54.0001 47C54.6494 47.1295 55.3884 47.2532 56.0001 47C56.6118 46.7469 56.6322 45.5505 57.0001 45C57.368 44.4496 58.0001 43.6621 58.0001 43C57.9998 42.1132 57.6268 41.6275 57.0001 41C56.3734 40.3726 55.8869 40.0014 55.0001 40Z" fill="white"/>
<path d="M26.0001 49.0001C24.9579 49.0011 22.8672 48.5783 22.0001 48.0001C21.1331 47.4218 20.3997 46.9627 20.0001 46.0001C19.6006 45.0375 19.7974 43.0224 20.0001 42.0001C20.2028 40.9777 21.2635 40.7374 22.0001 40.0001C22.7367 39.2627 22.978 38.2038 24.0001 38.0001C25.0223 37.7964 27.0372 37.6014 28.0001 38.0001C28.9631 38.3987 29.421 39.1335 30.0001 40.0001C30.5793 40.8666 31.0001 41.9578 31.0001 43.0001C30.9991 44.3961 29.9868 46.0124 29.0001 47.0001C28.0134 47.9877 27.3962 48.9977 26.0001 49.0001ZM26.0001 40.0001C25.338 39.999 24.5512 40.6329 24.0001 41.0001C23.4491 41.3672 22.2542 41.3886 22.0001 42.0001C21.7461 42.6115 21.8716 43.3505 22.0001 44.0001C22.1287 44.6496 22.5323 45.5315 23.0001 46.0001C23.468 46.4686 24.3508 46.8705 25.0001 47.0001C25.6494 47.1296 26.3883 47.2532 27.0001 47.0001C27.6119 46.7469 27.6322 45.5505 28.0001 45.0001C28.3681 44.4496 29.0001 43.6622 29.0001 43.0001C28.9995 42.1136 28.6265 41.6274 28.0001 41.0001C27.3738 40.3727 26.8866 40.0021 26.0001 40.0001Z" fill="white"/>
<path d="M60.9996 45H57.9996C57.7337 45 58.1876 45.1805 57.9996 45C57.8116 44.8196 56.9996 44.2553 56.9996 44C56.9996 43.7448 57.8116 43.1805 57.9996 43C57.7337 43 58.1876 42.8196 57.9996 43H60.9996V38C60.9989 37.3101 60.3496 36.6026 59.9996 36L54.9996 26C54.9532 25.9203 55.0816 26.0463 54.9996 26C54.9176 25.9538 54.0947 26.0001 53.9996 26H46.9996V43H48.9996C49.2655 43 49.8116 42.8196 49.9996 43C50.1876 43.1805 49.9996 43.7448 49.9996 44C49.9996 44.2553 50.1876 44.8196 49.9996 45C49.8116 45.1805 49.2655 45 48.9996 45H45.9996C45.7337 45 45.1876 45.1805 44.9996 45C44.8116 44.8196 44.9996 44.2553 44.9996 44V25C44.9996 24.7448 44.8116 24.1805 44.9996 24C45.1876 23.8196 45.7337 24 45.9996 24H53.9996C54.4519 23.9998 55.6095 23.7803 55.9996 24C56.3897 24.2197 56.7791 24.6209 56.9996 25L61.9996 35C62.5154 35.8891 62.9991 36.9824 62.9996 38V43C62.9989 43.4378 62.322 44.6905 61.9996 45C61.6771 45.3096 61.4556 44.9994 60.9996 45Z" fill="white"/>
<path d="M20.9998 44.9999H11.9998C11.755 44.9999 11.1728 45.187 10.9998 44.9999C10.8267 44.8128 10.9998 44.2645 10.9998 43.9999V35.9999C10.9998 35.7353 10.8267 35.187 10.9998 34.9999C11.1728 34.8128 11.755 34.9999 11.9998 34.9999C12.2445 34.9999 12.8267 34.8128 12.9998 34.9999C13.1728 35.187 12.9998 35.7353 12.9998 35.9999V42.9999H20.9998C21.2445 42.9999 21.8267 42.8128 21.9998 42.9999C22.1728 43.187 21.9998 43.7353 21.9998 43.9999C21.9998 44.2645 22.1728 44.8128 21.9998 44.9999C21.8267 45.187 21.2445 44.9999 20.9998 44.9999Z" fill="white"/>
<path d="M12.0002 32.9999C11.7728 32.9999 11.1609 33.1864 11.0002 32.9999C10.8394 32.8134 11.0002 32.2637 11.0002 31.9999V24.9999C11.0002 24.7361 10.8394 24.1864 11.0002 23.9999C11.1609 23.8134 11.7728 23.9999 12.0002 23.9999C12.2275 23.9999 12.8394 23.8134 13.0002 23.9999C13.1609 24.1864 13.0002 24.7361 13.0002 24.9999V31.9999C12.9992 32.263 13.1608 32.8142 13.0002 32.9999C12.8395 33.1856 12.2269 32.9999 12.0002 32.9999Z" fill="white"/>
<path d="M47.0004 45H30.0004C29.7382 45 30.1857 45.1855 30.0004 45C29.815 44.8145 29.0004 44.2623 29.0004 44C29.0004 43.7377 29.815 43.1855 30.0004 43C29.7382 43 30.1857 42.8145 30.0004 43H46.0004V17H13.0004V21C13.0004 21.2623 13.1857 21.8145 13.0004 22C12.815 22.1855 12.2625 22 12.0004 22C11.7382 22 11.1857 22.1855 11.0004 22C10.815 21.8145 11.0004 21.2623 11.0004 21V17C11.0011 16.5236 11.6636 16.3368 12.0004 16C12.3371 15.6632 12.5243 15.0003 13.0004 15H46.0004C46.4762 15.0007 46.6639 15.6633 47.0004 16C47.3368 16.3367 47.9997 16.5238 48.0004 17V44C48.0004 44.2623 48.1857 44.8145 48.0004 45C47.815 45.1855 47.2625 45 47.0004 45Z" fill="white"/>
<path d="M14.9995 36.9999H2.99954C2.75242 36.9999 2.17427 37.1606 1.99954 36.9999C1.8248 36.8392 1.99954 36.2272 1.99954 35.9999C1.99954 35.7726 1.8248 35.1606 1.99954 34.9999C2.17427 34.8392 2.75242 34.9999 2.99954 34.9999H14.9995C15.2467 34.9999 15.8248 34.8392 15.9995 34.9999C16.1743 35.1606 15.9995 35.7726 15.9995 35.9999C15.9995 36.2272 16.1743 36.8392 15.9995 36.9999C15.8248 37.1606 15.2467 36.9999 14.9995 36.9999Z" fill="white"/>
<path d="M24.9999 32.9999H7.99991C7.7485 32.9999 7.17767 33.1606 6.99991 32.9999C6.82214 32.8392 6.99991 32.2272 6.99991 31.9999C6.99991 31.7726 6.82214 31.1606 6.99991 30.9999C7.17767 30.8392 7.7485 30.9999 7.99991 30.9999H24.9999C25.2513 30.9999 25.8221 30.8392 25.9999 30.9999C26.1777 31.1606 25.9999 31.7726 25.9999 31.9999C25.9999 32.2272 26.1777 32.8392 25.9999 32.9999C25.8221 33.1606 25.2513 32.9999 24.9999 32.9999Z" fill="white"/>
<path d="M8.00005 26.9999H1.00005C0.741982 26.9999 0.182527 27.1606 4.74006e-05 26.9999C-0.182432 26.8392 4.74006e-05 26.2272 4.74006e-05 25.9999C4.74006e-05 25.7726 -0.182432 25.1606 4.74006e-05 24.9999C0.182527 24.8392 0.741982 24.9999 1.00005 24.9999H8.00005C8.25811 24.9999 8.81757 24.8392 9.00005 24.9999C9.18253 25.1606 9.00005 25.7726 9.00005 25.9999C9.00005 26.2272 9.18253 26.8392 9.00005 26.9999C8.81757 27.1606 8.25811 26.9999 8.00005 26.9999Z" fill="white"/>
<path d="M19.0002 21.9999H7.00017C6.74483 21.9999 6.18072 22.1606 6.00017 21.9999C5.81961 21.8392 6.00017 21.2272 6.00017 20.9999C6.00017 20.7726 5.81961 20.1606 6.00017 19.9999C6.18072 19.8392 6.74483 19.9999 7.00017 19.9999H19.0002C19.2555 19.9999 19.8196 19.8392 20.0002 19.9999C20.1807 20.1606 20.0002 20.7726 20.0002 20.9999C20.0002 21.2272 20.1807 21.8392 20.0002 21.9999C19.8196 22.1606 19.2555 21.9999 19.0002 21.9999Z" fill="white"/>
</g>
<defs>
<clipPath id="clip0_1_334">
<rect width="63" height="63" fill="white"/>
</clipPath>
</defs>
</svg>
