<svg width="339" height="396" viewBox="0 0 339 396" fill="none" xmlns="http://www.w3.org/2000/svg">
<path fill-rule="evenodd" clip-rule="evenodd" d="M31.8456 118.806V281.446L109.781 327.312V364.024L0.0745798 299.699H0V98.6504L141.142 18.6077L140.658 18.328L172.149 0L210.837 23.1197V24.313V86.755L249.469 109.446H249.898V109.726L288.792 132.566V169.352L249.898 146.512V288.288L218.109 308.443V127.83L179.066 104.934H178.992V41.0748L172.447 37.1221L31.8456 118.806ZM338.387 97.5318H338.462V299.643L173.64 395.348V395.422L127.196 368.368V185.685L104.076 239.103L81.8141 187.587V286.312L49.9685 268.413V128.743C62.1623 121.975 75.6239 115.785 85.2074 110.993L106.071 171.105L127.215 86.755L159.041 66.8794V350.152L173.622 358.617L306.598 281.446V115.711L228.662 69.844V33.1134L338.387 97.5318Z" fill="white"/>
</svg>
