<svg width="47" height="47" viewBox="0 0 47 47" fill="none" xmlns="http://www.w3.org/2000/svg">
<g clip-path="url(#clip0_1_360)">
<path d="M47 28C47 26.8242 46.8056 25.8081 46 25C46.9133 24.0002 47.1271 22.3949 47 21C46.7712 18.5132 44.6321 17 42 17H30C30.5984 15.1824 31 11.6765 31 9C31 4.7563 27.2626 1 25 1C22.9702 1 22.0606 1.95304 22 2C21.7673 2.1859 22 2.70267 22 3V10L16 22C16 21.46 15.5397 21 15 21H5C2.30338 21.0001 0 22.302 0 25V41C0 43.6981 2.30338 46 5 46H11C13.1139 46 14.3195 44.8841 15 43C16.6271 43.8374 19.6409 44 21 44H39C41.1296 44 42.562 42.98 43 41C43.2249 39.9787 43.4459 38.8922 43 38C44.4432 37.2741 45 35.6963 45 34C45 33.3074 45.2992 32.5987 45 32C46.4432 31.2722 47 29.6963 47 28ZM43 30C42.6226 30.045 42.1212 30.638 42 31C41.8807 31.362 41.7223 31.7378 42 32C42.4967 32.4676 43 33.3269 43 34C43 35.2345 42.2339 35.8572 41 36C40.6226 36.045 40.1212 36.638 40 37C39.8807 37.362 39.7223 37.7378 40 38C40.6434 38.6065 41.1936 39.1234 41 40C40.7595 41.0917 40.2203 42 39 42H21C19.4121 42 15.923 40.9255 15 40C14.7203 39.7222 14.3637 39.8513 14 40C13.6343 40.1507 14 40.6048 14 41C14 42.6181 12.6173 44 11 44H5C3.38274 44 2 42.6181 2 41V25C2 23.3819 3.38274 23 5 23H14V24C13.7106 23.82 14 24.3385 14 24C14.2855 24.1721 14.6949 24.1487 15 24L17 23C17.1975 22.9021 17.9061 23.2015 18 23L23 10C23 10.1409 23.0587 9.87087 23 10V3C23.4068 2.77503 24.1572 3 25 3C26.0717 3 29 5.79521 29 9C29 12.4435 27.0176 16.951 27 17C26.8866 17.2993 27.8181 17.7339 28 18C28.1838 18.2641 27.6794 19 28 19H42C43.6309 19 44.8631 19.5091 45 21C45.1037 22.1152 44.9601 23.4072 44 24C43.7008 24.1839 42.9863 24.6459 43 25C43.0137 25.3541 43.6871 25.8376 44 26C44.8272 26.4207 45 27.0883 45 28C45.0001 29.2345 44.2359 29.8572 43 30Z" fill="white"/>
<path d="M15 23C14.448 23 14 23.448 14 24V42C14 42.552 14.448 43 15 43C15.552 43 16 42.552 16 42V24C16 23.448 15.552 23 15 23Z" fill="white"/>
</g>
<defs>
<clipPath id="clip0_1_360">
<rect width="47" height="47" fill="white"/>
</clipPath>
</defs>
</svg>
