<svg width="55" height="55" viewBox="0 0 55 55" fill="none" xmlns="http://www.w3.org/2000/svg">
<path d="M32.0005 15C30.5831 13.6316 28.418 13.6314 27.0005 15L21.0005 21L19.0005 20C17.5888 18.6371 15.4177 18.6317 14.0005 20C12.5897 21.3623 12.5897 23.6377 14.0005 25L20.0005 31C20.4316 31.4164 21.583 31.4084 22.0005 31L32.0005 20C33.3964 18.6349 33.4055 16.3567 32.0005 15ZM30.0005 19L21.0005 28L16.0005 23C15.4278 22.4471 15.4278 21.553 16.0005 21C16.5743 20.446 17.4264 20.4456 18.0005 21L20.0005 23C20.42 23.4051 21.5807 23.4053 22.0005 23L28.0005 17C28.5775 16.4427 29.4234 16.4426 30.0005 17C30.5728 17.5526 30.569 18.444 30.0005 19Z" fill="white"/>
<path d="M48.9998 41L37.9998 32C41.9686 25.1299 40.6737 15.6287 34.9998 9.99996C28.068 3.12381 16.9325 3.12296 9.99984 9.99996C3.0683 16.8762 3.06723 28.1227 9.99984 35C15.8052 40.7593 25.2793 41.7699 31.9998 38L39.9998 49C42.2251 51.7233 46.4861 51.4936 48.9998 49C51.4563 46.563 51.6371 43.2428 48.9998 41ZM11.9998 34C5.90656 27.9555 5.90549 18.0456 11.9998 12C18.093 5.95548 27.9057 5.95452 33.9998 12C40.9424 18.8872 39.4805 30.6177 30.9998 36C30.9996 36.0001 31.0001 35.9999 30.9998 36C25.0432 39.7787 17.3409 39.2987 11.9998 34ZM47.9998 48C46.3961 49.5911 43.431 48.7514 41.9998 47L32.9998 37C34.417 35.9586 35.9953 34.3335 36.9998 33L47.9998 42C49.683 43.4316 49.5861 46.4266 47.9998 48Z" fill="white"/>
</svg>
