<svg width="50" height="50" viewBox="0 0 50 50" fill="none" xmlns="http://www.w3.org/2000/svg">
<path d="M25 12C24.448 12 24 12.448 24 13C24 13.552 24.448 14 25 14C25.552 14 26 13.552 26 13C26 12.448 25.552 12 25 12Z" fill="white"/>
<path d="M9 30C9.55195 30 10 29.552 10 29C10 28.448 9.55195 28 9 28C8.44805 28 8 28.448 8 29C8 29.552 8.44805 30 9 30Z" fill="white"/>
<path d="M33 3C24.2083 3 16.5581 9.3516 16 17C7.62712 17.4207 0 22.8197 0 31C0 34.4186 1.54181 38.3755 4 41C4.48637 43.0085 3.46523 44.5322 2 46C1.72076 46.2797 1.84894 46.6343 2 47C2.15106 47.3653 2.6048 48 3 48C5.78511 48 8.00568 46.9279 10 45C11.9428 45.6634 14.6833 46 17 46C25.7906 46 33.4404 39.6469 34 32C36.0447 31.9091 38.3173 31.5743 40 31C41.9943 32.9279 44.2149 34 47 34C47.3952 34 47.8489 34.3653 48 34C48.1511 33.6343 48.2792 33.2797 48 33C46.5348 31.5322 45.5136 29.0085 46 27C48.4582 24.3755 50 21.4186 50 18C50 9.50021 41.707 3 33 3ZM17 44C14.6952 44 11.7593 43.7012 10 43C9.62311 42.8494 9.27428 42.7 9 43C7.82088 44.2912 6.67046 45.5862 5 46C5.92049 44.2334 6.56 41.9733 6 40C5.95575 39.8445 5.11253 40.1158 5 40C2.78442 37.7141 2 33.9894 2 31C2 24.1063 8.74194 19 17 19C24.798 19 32 23.7146 32 31C32 38.0125 25.0772 44 17 44ZM45 26C44.8875 26.1162 44.0443 25.8449 44 26C43.44 27.9733 44.0795 30.2334 45 32C43.3295 31.5865 42.1791 30.2912 41 29C40.7257 28.7004 40.3769 28.8494 40 29C38.4753 29.6076 36.0535 29.8984 34 30C33.7147 26.3006 31.1494 23.5817 28 21H41C41.5394 21 42 20.5403 42 20C42 19.4597 41.5394 19 41 19H25C22.7833 17.8696 20.562 17.1383 18 17C18.5611 10.4296 25.2909 5 33 5C41.2581 5 48 11.1063 48 18C48 20.9894 47.2156 23.7141 45 26Z" fill="white"/>
<path d="M25 28H13C12.4704 28 12 28.4477 12 29C12 29.5523 12.4704 30 13 30H25C25.5296 30 26 29.5523 26 29C26 28.4477 25.5296 28 25 28Z" fill="white"/>
<path d="M25 34H9C8.46547 34 8 34.4477 8 35C8 35.5523 8.46547 36 9 36H25C25.5345 36 26 35.5523 26 35C26 34.4477 25.5345 34 25 34Z" fill="white"/>
<path d="M41 12H29C28.4704 12 28 12.4477 28 13C28 13.5523 28.4704 14 29 14H41C41.5296 14 42 13.5523 42 13C42 12.4477 41.5296 12 41 12Z" fill="white"/>
</svg>
