<svg width="46" height="46" viewBox="0 0 46 46" fill="none" xmlns="http://www.w3.org/2000/svg">
<g clip-path="url(#clip0_1_379)">
<path d="M31 19H14C13.4756 19 13 18.5244 13 18V1C13 0.4756 13.4756 0 14 0H31C31.5244 0 32 0.4756 32 1V18C32 18.5244 31.5244 19 31 19ZM15 17H30V2H15V17Z" fill="white"/>
<path d="M26 8H20C19.448 8 19 7.552 19 7V1C19 0.448 19.448 0 20 0H26C26.552 0 27 0.448 27 1V7C27 7.552 26.552 8 26 8ZM21 6H25V2H21V6Z" fill="white"/>
<path d="M23 36H5C4.47429 36 4 35.5244 4 35V18C4 17.4756 4.47429 17 5 17H23C23.5257 17 24 17.4756 24 18V35C24 35.5244 23.5257 36 23 36ZM6 34H22V19H6V34Z" fill="white"/>
<path d="M17 25H11C10.448 25 10 24.552 10 24V18C10 17.448 10.448 17 11 17H17C17.552 17 18 17.448 18 18V24C18 24.552 17.552 25 17 25ZM12 23H16V19H12V23Z" fill="white"/>
<path d="M41 36H23C22.4743 36 22 35.5244 22 35V18C22 17.4756 22.4743 17 23 17H41C41.5257 17 42 17.4756 42 18V35C42 35.5244 41.5257 36 41 36ZM24 34H40V19H24V34Z" fill="white"/>
<path d="M36 25H30C29.448 25 29 24.552 29 24V18C29 17.448 29.448 17 30 17H36C36.552 17 37 17.448 37 18V24C37 24.552 36.552 25 36 25ZM31 23H35V19H31V23Z" fill="white"/>
<path d="M45 47H37C36.471 47 36 46.552 36 46V43H29V46C29 46.552 28.529 47 28 47H18C17.471 47 17 46.552 17 46V43H10V46C10 46.552 9.529 47 9 47H1C0.471 47 0 46.552 0 46V36C0 35.448 0.471 35 1 35H45C45.529 35 46 35.448 46 36V46C46 46.552 45.529 47 45 47ZM38 45H44V37H2V45H8V42C8 41.448 8.471 41 9 41H18C18.529 41 19 41.448 19 42V45H27V42C27 41.448 27.471 41 28 41H37C37.529 41 38 41.448 38 42V45Z" fill="white"/>
</g>
<defs>
<clipPath id="clip0_1_379">
<rect width="46" height="46" fill="white"/>
</clipPath>
</defs>
</svg>
