<svg width="45" height="50" viewBox="0 0 45 50" fill="none" xmlns="http://www.w3.org/2000/svg">
<path d="M34 21.9999V11.9999C34 11.7301 33.1751 11.1972 33 10.9999L23 -5.66617e-05C22.8041 -0.207571 22.2781 -5.66617e-05 22 -5.66617e-05H6C2.92813 -5.66617e-05 0 2.90585 0 5.99994V36.9999C0 40.094 2.92813 42.9999 6 42.9999H19C21.4843 47.1529 25.8559 49.9999 31 49.9999C38.8144 49.9999 45 43.8802 45 35.9999C45.0106 29.1163 40.3917 23.3393 34 21.9999ZM23 3.99994L30 10.9999H26C24.6392 10.9999 23 10.3704 23 8.99994V3.99994ZM6 40.9999C4.07234 40.9999 2 38.9413 2 36.9999V5.99994C2 4.04794 4.07234 1.99994 6 1.99994H21V8.99994C21 11.5228 23.4949 12.9999 26 12.9999H32V20.9999C31.6909 20.9897 31.2679 20.9999 31 20.9999C27.4021 20.9999 23.4949 22.8195 21 24.9999H8C7.4328 24.9999 7 25.4291 7 25.9999C7 26.5712 7.4328 26.9999 8 26.9999H20C19.2679 28.0383 18.474 28.8579 18 29.9999H8C7.4328 29.9999 7 30.4287 7 30.9999C7 31.5708 7.4328 31.9999 8 31.9999H17C16.7422 33.0383 17 34.8476 17 35.9999C17 37.8687 17.3505 39.4424 18 40.9999H6ZM31 47.9999C24.3196 47.9999 19 42.7278 19 35.9999C19 29.2721 24.309 22.9999 31 22.9999C37.6906 22.9999 43 29.2721 43 35.9999C43 42.7278 37.6804 47.9999 31 47.9999Z" fill="white"/>
<path d="M8 22H19C19.5896 22 20 21.5498 20 21C20 20.4499 19.5896 20 19 20H8C7.41036 20 7 20.4499 7 21C7 21.5498 7.41036 22 8 22Z" fill="white"/>
<path d="M38.0003 30.9999L29.0003 37.9999L25.0003 33.9999C24.6036 33.6042 23.4288 33.6431 23.0003 33.9999C22.5608 34.3571 22.6036 35.6141 23.0003 35.9999L28.0003 40.9999C28.2146 41.2027 28.7107 40.9999 29.0003 40.9999C28.7861 41.1642 29.2573 40.9999 29.0003 40.9999L40.0003 32.9999C40.4398 32.6427 40.4076 31.3858 40.0003 30.9999C39.593 30.6137 38.4398 30.6332 38.0003 30.9999Z" fill="white"/>
</svg>
